<svg id="visual" viewBox="0 0 900 600" width="900" height="600" xmlns="http://www.w3.org/2000/svg" xmlns:xlink="http://www.w3.org/1999/xlink" version="1.1"><rect x="0" y="0" width="900" height="600" fill="#233142"></rect><defs><linearGradient id="grad1_0" x1="33.3%" y1="0%" x2="100%" y2="100%"><stop offset="20%" stop-color="#233142" stop-opacity="1"></stop><stop offset="80%" stop-color="#233142" stop-opacity="1"></stop></linearGradient></defs><defs><linearGradient id="grad2_0" x1="0%" y1="0%" x2="66.7%" y2="100%"><stop offset="20%" stop-color="#233142" stop-opacity="1"></stop><stop offset="80%" stop-color="#233142" stop-opacity="1"></stop></linearGradient></defs><g transform="translate(900, 0)"><path d="M0 243.4C-12.8 225 -25.6 206.7 -40.4 203C-55.2 199.4 -72 210.4 -88 212.5C-104.1 214.6 -119.4 207.9 -132.8 198.7C-146.2 189.5 -157.6 177.9 -161.2 161.2C-164.8 144.6 -160.5 123 -162.1 108.3C-163.8 93.7 -171.5 86 -187.5 77.7C-203.6 69.4 -228 60.5 -238.7 47.5C-249.4 34.4 -246.4 17.2 -243.4 0L0 0Z" fill="#02F2A9"></path></g><g transform="translate(0, 600)"><path d="M0 -243.4C16.1 -239.1 32.3 -234.9 44.7 -224.6C57.1 -214.3 65.7 -198 80 -193.1C94.2 -188.2 114.1 -194.8 126.7 -189.6C139.2 -184.3 144.5 -167.2 157.7 -157.7C170.9 -148.1 192 -146.1 202.4 -135.2C212.7 -124.3 212.4 -104.5 211.6 -87.6C210.8 -70.8 209.6 -56.8 214.8 -42.7C220 -28.6 231.7 -14.3 243.4 0L0 0Z" fill="#02F2A9"></path></g></svg>