<svg xmlns="http://www.w3.org/2000/svg" width="687.686" height="663.488" viewBox="0 0 687.686 663.488">
  <path id="marco" d="M312.917-19.765c35.192,0,51.027,25.927,82.28,37.217C428.715,29.56,455.56,4.346,482.18,26.989c23.031,19.59,51.4-35.518,67.684-9.537,14.382,22.951,70.958,113.074,78.675,140.073C635.843,183.081,586,233.894,586,262.1c0,29.923-1.862,35.634-10.251,63.16-6.787,22.271,84.2,47.5,72.279,67.654-2.146,3.628-7.485,108.309-9.948,112.072-18.481,28.231-81.206,30.04-108.131,50.531-26.69,20.312-118.117-24.827-151.127-14.474-27.612,8.661,1.252,102.677-29.541,102.677-34.779,0-95.718-77.034-126.988-88.2-28.594-10.213-83.546,18.288-107.535,0C90.526,537.045,156,481.548,138.4,456.316c-17.7-25.378-57.82-44.653-66.912-74.985C63.507,354.706-38.576,312.6-38.576,283.111c0-45.293,91.744-76.177,110.064-114.695,17.829-37.486-19.2-106.31,12.01-133.052,27.177-23.289,104.131,12.319,138.8,0C252.943,24.473,278.253-19.765,312.917-19.765Z" transform="translate(38.576 19.765)" fill="#00feb1" opacity="0.2"/>
</svg>
