<svg xmlns="http://www.w3.org/2000/svg" width="1107.333" height="1100.658" viewBox="0 0 1107.333 1100.658">
  <path id="marco" d="M355.225-19.765c39.428,0-.542-71.336,34.473-58.687,23.658,8.546,42.681,30.673,71.377,44.972,16.419,8.181,45.317,7.215,56.352,16.6,12.334,10.491,40.281-6.222,60.016-3.064,21.019,3.363,33.731,26.681,43.252,41.875,3.6,5.747-21.31,42.679-16.635,56.193,7.559,21.848,43.922,24.694,40.479,48.811-3.7,25.895-33.528,41.611-30.035,53.831,4.313,15.089,45.438-10.791,73.566-1.134,24.941,8.562,37.393,52.51,37.393,67.459,0,33.525,42.251,28.429,32.853,59.268-2.213,7.261,23.557,26.669,21.942,39.585-3.819,30.543-34.6,62.228-44.065,78.237-1.168,1.976.812,56.173-37.379,81.18-40,26.19-93.142,25.843-94.56,28.01-20.706,31.63,24.3,68.437-5.868,91.394-12.978,9.877-34.564,51.333-57.01,57.351-28.795,7.72-59.565-20.884-80.5-14.319-30.936,9.7-30.408,55.787-64.908,55.787-19.716,0-11.639-26.843-31.929-32.658-19.281-5.525-66.953,10.053-84.26,3.871-11.116-3.97-28.1-61.427-42.155-76.05-25.951-27-50.2-18.135-67.752-31.514-24.328-18.546-97.719,39.211-106.431,13.46-.919-2.721,18.066-47.541,16.016-50.481C59.626,521.781,9.324,518.669-.862,484.686-1.6,482.21-37.8,419.8-38.872,416.114c-10.825-37.186,41.986-41.9,41.986-72.192,0-24.154-48.24-66.207-42-100.27,6.816-37.2,68.62-66.344,79.375-88.956,19.975-42,22.738-82.734,57.7-112.7,28.073-24.057,68.68-14.671,110.965-20.377,3.318-.447,46.367-8.852,49.4-9.928C292.889-.507,316.389-19.765,355.225-19.765Z" transform="matrix(0.875, 0.485, -0.485, 0.875, 386.078, 89.485)" fill="#00feb1" opacity="0.072"/>
</svg>
