<svg xmlns="http://www.w3.org/2000/svg" width="43.532" height="43.532" viewBox="0 0 43.532 43.532">
  <path id="Icon_ionic-ios-close-circle" data-name="Icon ionic-ios-close-circle" d="M25.141,3.375A21.766,21.766,0,1,0,46.907,25.141,21.763,21.763,0,0,0,25.141,3.375Zm5.515,29.646-5.515-5.515-5.515,5.515a1.672,1.672,0,1,1-2.365-2.365l5.515-5.515-5.515-5.515a1.672,1.672,0,1,1,2.365-2.365l5.515,5.515,5.515-5.515a1.672,1.672,0,1,1,2.365,2.365l-5.515,5.515,5.515,5.515a1.68,1.68,0,0,1,0,2.365A1.661,1.661,0,0,1,30.656,33.021Z" transform="translate(-3.375 -3.375)" fill="#00feb1"/>
</svg>
