<svg xmlns="http://www.w3.org/2000/svg" width="35.002" height="25.19" viewBox="0 0 35.002 25.19">
  <g id="Icon_feather-youtube" data-name="Icon feather-youtube" transform="translate(-0.499 -5)">
    <path id="Path_4" data-name="Path 4" d="M33.81,9.63a4.17,4.17,0,0,0-2.91-3C28.32,6,18,6,18,6S7.68,6,5.1,6.69a4.17,4.17,0,0,0-2.91,3,43.5,43.5,0,0,0-.69,7.935,43.5,43.5,0,0,0,.69,7.995A4.17,4.17,0,0,0,5.1,28.5c2.58.69,12.9.69,12.9.69s10.32,0,12.9-.69a4.17,4.17,0,0,0,2.91-3,43.5,43.5,0,0,0,.69-7.875,43.5,43.5,0,0,0-.69-8Z" fill="none" stroke="#00ffb1" stroke-linecap="round" stroke-linejoin="round" stroke-width="2"/>
    <path id="Path_5" data-name="Path 5" d="M14.625,22.53l8.625-4.905-8.625-4.9Z" fill="none" stroke="#00ffb1" stroke-linecap="round" stroke-linejoin="round" stroke-width="2"/>
  </g>
</svg>
