<svg id="visual" viewBox="0 0 900 600" width="900" height="600" xmlns="http://www.w3.org/2000/svg" xmlns:xlink="http://www.w3.org/1999/xlink" version="1.1"><path d="M0 505L10.7 499.2C21.3 493.3 42.7 481.7 64.2 480C85.7 478.3 107.3 486.7 128.8 484.8C150.3 483 171.7 471 193 470.8C214.3 470.7 235.7 482.3 257 486.7C278.3 491 299.7 488 321.2 486.2C342.7 484.3 364.3 483.7 385.8 484.7C407.3 485.7 428.7 488.3 450 487.7C471.3 487 492.7 483 514.2 483.3C535.7 483.7 557.3 488.3 578.8 484.7C600.3 481 621.7 469 643 470.2C664.3 471.3 685.7 485.7 707 486.7C728.3 487.7 749.7 475.3 771.2 471.2C792.7 467 814.3 471 835.8 476.3C857.3 481.7 878.7 488.3 889.3 491.7L900 495L900 601L889.3 601C878.7 601 857.3 601 835.8 601C814.3 601 792.7 601 771.2 601C749.7 601 728.3 601 707 601C685.7 601 664.3 601 643 601C621.7 601 600.3 601 578.8 601C557.3 601 535.7 601 514.2 601C492.7 601 471.3 601 450 601C428.7 601 407.3 601 385.8 601C364.3 601 342.7 601 321.2 601C299.7 601 278.3 601 257 601C235.7 601 214.3 601 193 601C171.7 601 150.3 601 128.8 601C107.3 601 85.7 601 64.2 601C42.7 601 21.3 601 10.7 601L0 601Z" fill="#02f2a9"></path><path d="M0 492L10.7 497.8C21.3 503.7 42.7 515.3 64.2 518C85.7 520.7 107.3 514.3 128.8 514.3C150.3 514.3 171.7 520.7 193 521C214.3 521.3 235.7 515.7 257 509.8C278.3 504 299.7 498 321.2 496.2C342.7 494.3 364.3 496.7 385.8 500.5C407.3 504.3 428.7 509.7 450 508C471.3 506.3 492.7 497.7 514.2 496.5C535.7 495.3 557.3 501.7 578.8 501.5C600.3 501.3 621.7 494.7 643 494.8C664.3 495 685.7 502 707 505.3C728.3 508.7 749.7 508.3 771.2 507.2C792.7 506 814.3 504 835.8 506C857.3 508 878.7 514 889.3 517L900 520L900 601L889.3 601C878.7 601 857.3 601 835.8 601C814.3 601 792.7 601 771.2 601C749.7 601 728.3 601 707 601C685.7 601 664.3 601 643 601C621.7 601 600.3 601 578.8 601C557.3 601 535.7 601 514.2 601C492.7 601 471.3 601 450 601C428.7 601 407.3 601 385.8 601C364.3 601 342.7 601 321.2 601C299.7 601 278.3 601 257 601C235.7 601 214.3 601 193 601C171.7 601 150.3 601 128.8 601C107.3 601 85.7 601 64.2 601C42.7 601 21.3 601 10.7 601L0 601Z" fill="#00c288"></path><path d="M0 549L10.7 544C21.3 539 42.7 529 64.2 526.7C85.7 524.3 107.3 529.7 128.8 531.8C150.3 534 171.7 533 193 532.5C214.3 532 235.7 532 257 530C278.3 528 299.7 524 321.2 522.3C342.7 520.7 364.3 521.3 385.8 524.7C407.3 528 428.7 534 450 535C471.3 536 492.7 532 514.2 533.5C535.7 535 557.3 542 578.8 542.8C600.3 543.7 621.7 538.3 643 535.3C664.3 532.3 685.7 531.7 707 535C728.3 538.3 749.7 545.7 771.2 547C792.7 548.3 814.3 543.7 835.8 540.3C857.3 537 878.7 535 889.3 534L900 533L900 601L889.3 601C878.7 601 857.3 601 835.8 601C814.3 601 792.7 601 771.2 601C749.7 601 728.3 601 707 601C685.7 601 664.3 601 643 601C621.7 601 600.3 601 578.8 601C557.3 601 535.7 601 514.2 601C492.7 601 471.3 601 450 601C428.7 601 407.3 601 385.8 601C364.3 601 342.7 601 321.2 601C299.7 601 278.3 601 257 601C235.7 601 214.3 601 193 601C171.7 601 150.3 601 128.8 601C107.3 601 85.7 601 64.2 601C42.7 601 21.3 601 10.7 601L0 601Z" fill="#009468"></path><path d="M0 557L10.7 556.5C21.3 556 42.7 555 64.2 554.8C85.7 554.7 107.3 555.3 128.8 556.5C150.3 557.7 171.7 559.3 193 562C214.3 564.7 235.7 568.3 257 569.7C278.3 571 299.7 570 321.2 570.2C342.7 570.3 364.3 571.7 385.8 569.8C407.3 568 428.7 563 450 561.2C471.3 559.3 492.7 560.7 514.2 559.2C535.7 557.7 557.3 553.3 578.8 552.7C600.3 552 621.7 555 643 558.5C664.3 562 685.7 566 707 568.7C728.3 571.3 749.7 572.7 771.2 573C792.7 573.3 814.3 572.7 835.8 570.5C857.3 568.3 878.7 564.7 889.3 562.8L900 561L900 601L889.3 601C878.7 601 857.3 601 835.8 601C814.3 601 792.7 601 771.2 601C749.7 601 728.3 601 707 601C685.7 601 664.3 601 643 601C621.7 601 600.3 601 578.8 601C557.3 601 535.7 601 514.2 601C492.7 601 471.3 601 450 601C428.7 601 407.3 601 385.8 601C364.3 601 342.7 601 321.2 601C299.7 601 278.3 601 257 601C235.7 601 214.3 601 193 601C171.7 601 150.3 601 128.8 601C107.3 601 85.7 601 64.2 601C42.7 601 21.3 601 10.7 601L0 601Z" fill="#006949"></path></svg>